<?xml version="1.0" encoding="iso-8859-1"?>
<!-- Uploaded to: SVG Repo, www.svgrepo.com, Generator: SVG Repo Mixer Tools -->
<svg height="800px" width="800px" version="1.1" id="Layer_1" xmlns="http://www.w3.org/2000/svg" xmlns:xlink="http://www.w3.org/1999/xlink" 
	 viewBox="0 0 511.989 511.989" xml:space="preserve">
<g>
	<path style="fill:#ED5564;" d="M232.976,311.852c-3.203,0-6.296-1.438-8.343-4.016c-11.5-14.453-24.108-40.795-29.952-62.607
		c-6.296-23.53-7.733-47.014-4.046-66.137c4.218-21.796,14.702-35.999,29.545-39.968c2.656-0.719,5.406-1.078,8.172-1.078
		c13.765,0,27.733,8.484,40.404,24.53c11.367,14.422,20.805,34.202,26.555,55.685c5.874,21.812,8.124,50.921,5.374,69.186
		c-0.625,4.203-3.687,7.624-7.78,8.733l-57.163,15.312C234.82,311.742,233.898,311.852,232.976,311.852z"/>
	<path style="fill:#ED5564;" d="M273.935,377.146h-0.031c-9.398,0-22.991-3.875-34.209-22.312
		c-5.969-9.78-8.625-19.562-8.734-19.968c-0.734-2.734-0.359-5.656,1.062-8.093c1.406-2.453,3.75-4.25,6.484-4.984l57.147-15.312
		c5.718-1.516,11.562,1.859,13.062,7.547c0.156,0.484,3.219,12.156,2.281,25.03c-1.406,19.358-11.156,32.421-27.374,36.764
		C280.342,376.693,277.092,377.146,273.935,377.146z"/>
	<path style="fill:#ED5564;" d="M407.056,202.574c-0.906,0-1.844-0.125-2.75-0.359l-57.185-15.327
		c-4.094-1.094-7.156-4.516-7.781-8.718c-2.719-18.281-0.469-47.374,5.375-69.201c5.75-21.483,15.187-41.248,26.561-55.685
		C383.931,37.239,397.9,28.77,411.68,28.77c2.781,0,5.531,0.359,8.156,1.062c14.874,3.984,25.343,18.171,29.562,39.968
		c3.688,19.139,2.25,42.623-4.031,66.137c-5.875,21.828-18.469,48.155-29.968,62.607
		C413.336,201.121,410.274,202.574,407.056,202.574z"/>
	<path style="fill:#ED5564;" d="M366.119,267.854L366.119,267.854c-3.187,0-6.437-0.438-9.687-1.312
		c-16.249-4.359-25.968-17.406-27.405-36.765c-0.938-12.875,2.156-24.546,2.281-25.046c0.719-2.734,2.531-5.062,4.969-6.469
		c2.438-1.422,5.375-1.797,8.094-1.062l57.153,15.312c5.719,1.516,9.094,7.375,7.562,13.062c-0.125,0.406-2.781,10.188-8.75,19.968
		C389.118,263.979,375.524,267.854,366.119,267.854z"/>
</g>
<path style="fill:#CCD1D9;" d="M174.291,299.962l-45.248,45.249c-4.172,4.171-4.172,10.921,0,15.093l22.624,22.624
	c2,2,4.703,3.125,7.547,3.125c2.828,0,5.531-1.125,7.531-3.125l45.248-45.248C197.649,327.023,184.947,314.306,174.291,299.962z"/>
<path style="fill:#E6E9ED;" d="M319.996,384.005L319.996,384.005c-51.287,0-99.488-19.968-135.752-56.232
	c-36.265-36.264-56.248-84.481-56.248-135.76c0-51.295,19.983-99.512,56.248-135.76c36.264-36.265,84.465-56.249,135.752-56.249
	c51.279,0,99.496,19.968,135.776,56.232c36.248,36.264,56.217,84.481,56.217,135.776c0,51.279-19.969,99.497-56.217,135.76
	C419.492,364.038,371.275,384.005,319.996,384.005L319.996,384.005z M319.996,21.347c-45.592,0-88.442,17.75-120.675,49.983
	s-49.982,75.091-49.982,120.683c0,45.576,17.75,88.434,49.982,120.667c32.233,32.249,75.083,49.998,120.675,49.998l0,0
	c45.592,0,88.435-17.765,120.683-49.998c32.249-32.233,49.998-75.091,49.998-120.667c0-45.592-17.749-88.45-49.998-120.683
	C408.431,39.097,365.588,21.347,319.996,21.347z"/>
<path style="fill:#656D78;" d="M181.26,375.99l-45.249-45.264c-2-2-4.718-3.124-7.546-3.124c-2.828,0-5.547,1.124-7.547,3.124
	L12.5,439.16C4.438,447.206,0,457.924,0,469.33c0,11.391,4.438,22.109,12.5,30.155c8.062,8.062,18.765,12.5,30.171,12.5
	c11.39,0,22.108-4.438,30.171-12.5l108.417-108.418c2-2,3.125-4.718,3.125-7.546S183.26,377.99,181.26,375.99z"/>
</svg>